<?xml version="1.0" encoding="UTF-8"?>
<svg xmlns="http://www.w3.org/2000/svg" xmlns:xlink="http://www.w3.org/1999/xlink" width="1012.5pt" height="487.499991pt" viewBox="0 0 1012.5 487.499991" version="1.2">
<defs>
<clipPath id="clip1">
  <path d="M 411.601562 147 L 601 147 L 601 339 L 411.601562 339 Z M 411.601562 147 "/>
</clipPath>
</defs>
<g id="surface1">
<g clip-path="url(#clip1)" clip-rule="nonzero">
<path style=" stroke:none;fill-rule:evenodd;fill:rgb(0%,0%,0%);fill-opacity:1;" d="M 518.449219 158.148438 C 510.316406 177.242188 489.496094 173.882812 475.988281 171.714844 C 473.988281 171.390625 472.140625 171.097656 470.492188 170.894531 C 453.980469 168.875 441.699219 169.734375 432.351562 174.058594 C 422.902344 178.425781 416.519531 186.253906 411.890625 198.132812 L 411.601562 198.875 L 412.128906 199.46875 C 421.179688 209.714844 428.21875 221.0625 433.558594 233.339844 C 440.527344 249.359375 443.503906 263.75 445.066406 280.960938 C 446.125 292.625 459.796875 294.230469 469.0625 292.574219 C 478.441406 290.894531 488.5625 286.195312 495.085938 281.675781 L 497.125 280.265625 L 494.8125 279.375 C 489.199219 277.222656 481.625 271.503906 476.039062 264.480469 C 472.765625 260.367188 468.421875 253.03125 468.753906 247.609375 C 477.828125 244.429688 487.441406 243.859375 497.046875 243.324219 C 515.191406 241.667969 538.195312 239.789062 545.875 220.179688 L 593.300781 336.703125 C 595.042969 341.015625 601.628906 338.378906 599.882812 334.0625 L 524.726562 148.878906 C 523.632812 146.183594 518.859375 147.664062 519.875 151.207031 L 520.566406 153.609375 C 519.679688 155.246094 518.957031 156.953125 518.449219 158.148438 Z M 518.449219 158.148438 "/>
</g>
<path style=" stroke:none;fill-rule:evenodd;fill:rgb(100%,100%,100%);fill-opacity:1;" d="M 508.554688 172.804688 C 509.4375 176.847656 510.300781 180.898438 511.179688 184.960938 C 511.195312 185.082031 511.21875 185.1875 511.238281 185.292969 C 511.132812 185.363281 511.015625 185.433594 510.90625 185.496094 C 506.496094 187.433594 501.695312 188.519531 496.609375 188.890625 C 496.464844 188.902344 496.328125 188.910156 496.195312 188.917969 C 496.234375 189.035156 496.269531 189.144531 496.292969 189.25 C 497.574219 193.5 498.886719 197.734375 500.28125 201.933594 C 500.320312 202.050781 500.355469 202.164062 500.386719 202.261719 C 500.261719 202.253906 500.136719 202.257812 499.996094 202.257812 C 494.949219 202.203125 489.765625 201.832031 484.449219 201.265625 C 484.324219 201.238281 484.179688 201.226562 484.039062 201.214844 C 483.988281 201.101562 483.960938 200.980469 483.910156 200.867188 C 482.253906 196.457031 480.628906 192.046875 478.980469 187.644531 C 478.945312 187.535156 478.902344 187.417969 478.847656 187.292969 C 479.011719 187.316406 479.15625 187.335938 479.304688 187.355469 C 484.902344 188.089844 490.410156 188.644531 495.769531 188.894531 C 495.914062 188.90625 496.050781 188.90625 496.195312 188.917969 C 496.171875 188.8125 496.132812 188.691406 496.105469 188.578125 C 494.839844 184.394531 493.5625 180.21875 492.21875 176.058594 C 497.847656 176.09375 503.535156 175.3125 508.554688 172.804688 Z M 448.546875 269.054688 C 448.609375 268.863281 448.671875 268.675781 448.738281 268.488281 C 451.792969 269.320312 455.804688 269.796875 460.011719 269.332031 C 461.320312 271.996094 462.828125 274.484375 464.535156 276.726562 C 465.414062 277.882812 466.34375 278.972656 467.332031 279.992188 C 465.867188 280.402344 464.433594 280.726562 463.03125 280.980469 C 459.613281 281.59375 456.367188 281.742188 453.285156 281.484375 C 453.117188 281.230469 452.949219 280.976562 452.789062 280.71875 C 450.667969 277.324219 449.273438 273.347656 448.546875 269.054688 Z M 452.917969 282.105469 C 451.261719 281.949219 449.65625 281.679688 448.089844 281.296875 C 448.195312 281.679688 448.3125 282.050781 448.433594 282.410156 C 449.800781 286.285156 452.484375 288.578125 455.914062 289.703125 C 458.179688 290.445312 460.78125 290.703125 463.558594 290.582031 C 459.023438 288.789062 455.503906 285.835938 452.917969 282.105469 Z M 468.578125 280.308594 C 472.816406 279.027344 477.308594 277.085938 482.082031 274.402344 C 485.308594 277.132812 488.628906 279.355469 491.613281 280.828125 C 488.164062 282.996094 483.96875 285.125 479.539062 286.84375 C 475.347656 285.597656 471.703125 283.324219 468.578125 280.308594 Z M 472.277344 263.835938 C 469.863281 260.421875 467.855469 255.878906 466.800781 252.203125 C 462.691406 253.136719 459.425781 254.214844 456.160156 256.714844 C 457.210938 260.902344 458.621094 264.933594 460.398438 268.625 C 460.5 268.613281 460.605469 268.597656 460.710938 268.585938 C 464.652344 268.039062 468.726562 266.621094 472.277344 263.835938 Z M 500.386719 202.261719 C 500.429688 202.378906 500.464844 202.488281 500.507812 202.585938 C 502.027344 206.75 503.65625 210.855469 505.441406 214.890625 C 505.492188 215.007812 505.527344 215.117188 505.574219 215.214844 C 505.703125 215.199219 505.824219 215.183594 505.960938 215.179688 C 510.613281 214.410156 515.050781 213.097656 519.097656 210.878906 C 519.199219 210.824219 519.304688 210.753906 519.402344 210.691406 C 519.445312 210.785156 519.503906 210.886719 519.566406 210.996094 C 521.558594 214.6875 523.730469 218.292969 526.039062 221.8125 C 526.105469 221.910156 526.171875 222.003906 526.226562 222.097656 C 526.335938 222.027344 526.449219 221.953125 526.554688 221.878906 C 529.957031 218.78125 533.050781 214.957031 535.75 210.210938 C 532.945312 206.652344 530.523438 202.875 528.460938 198.894531 C 525.957031 203.738281 523.011719 207.527344 519.71875 210.476562 C 519.605469 210.558594 519.5 210.628906 519.402344 210.691406 C 519.359375 210.59375 519.3125 210.488281 519.265625 210.382812 C 517.535156 206.554688 515.996094 202.628906 514.664062 198.625 C 514.632812 198.523438 514.589844 198.40625 514.558594 198.304688 C 514.664062 198.234375 514.773438 198.167969 514.871094 198.101562 C 518.136719 195.296875 521.019531 191.609375 523.4375 186.800781 C 522.125 182.71875 521.097656 178.472656 520.34375 174.078125 C 517.863281 178.8125 514.902344 182.40625 511.566406 185.097656 C 511.460938 185.164062 511.347656 185.226562 511.238281 185.292969 C 511.265625 185.410156 511.292969 185.523438 511.316406 185.628906 C 512.261719 189.773438 513.285156 193.90625 514.464844 197.976562 C 514.5 198.085938 514.527344 198.203125 514.558594 198.304688 C 514.457031 198.359375 514.351562 198.425781 514.246094 198.496094 C 510.105469 200.535156 505.585938 201.695312 500.777344 202.238281 C 500.65625 202.238281 500.523438 202.253906 500.386719 202.261719 Z M 505.574219 215.214844 C 505.621094 215.328125 505.683594 215.4375 505.738281 215.535156 C 507.6875 219.480469 509.78125 223.371094 511.960938 227.1875 C 512.019531 227.289062 512.082031 227.398438 512.132812 227.488281 C 512.261719 227.464844 512.386719 227.441406 512.527344 227.421875 C 517.265625 226.355469 521.792969 224.769531 525.90625 222.300781 C 526.011719 222.234375 526.121094 222.164062 526.226562 222.097656 C 526.300781 222.179688 526.371094 222.277344 526.421875 222.367188 C 528.664062 225.496094 531 228.558594 533.371094 231.589844 C 529.003906 234.558594 523.941406 236.453125 518.488281 237.746094 C 516.402344 234.449219 514.332031 231.136719 512.316406 227.789062 C 512.265625 227.695312 512.203125 227.585938 512.132812 227.492188 C 512.003906 227.507812 511.875 227.523438 511.746094 227.546875 C 506.8125 228.113281 501.699219 228.359375 496.460938 228.359375 C 496.324219 228.359375 496.183594 228.355469 496.050781 228.363281 C 496 228.25 495.9375 228.140625 495.875 228.03125 C 493.804688 223.828125 491.765625 219.589844 489.800781 215.328125 C 489.753906 215.214844 489.691406 215.105469 489.636719 214.980469 C 489.78125 214.992188 489.910156 215.007812 490.046875 215.007812 C 495.21875 215.34375 500.277344 215.445312 505.183594 215.238281 C 505.316406 215.230469 505.4375 215.21875 505.574219 215.214844 Z M 489.636719 214.980469 C 489.597656 214.863281 489.542969 214.75 489.492188 214.632812 C 487.652344 210.308594 485.875 205.953125 484.175781 201.554688 C 484.132812 201.449219 484.089844 201.332031 484.039062 201.214844 C 483.902344 201.191406 483.757812 201.171875 483.613281 201.164062 C 478.285156 200.507812 472.980469 199.917969 467.753906 199.523438 C 467.625 199.519531 467.484375 199.507812 467.339844 199.496094 C 467.394531 199.621094 467.449219 199.742188 467.5 199.855469 C 469.355469 204.414062 471.234375 208.964844 473.144531 213.503906 C 473.199219 213.628906 473.242188 213.753906 473.285156 213.875 C 473.421875 213.875 473.566406 213.886719 473.6875 213.882812 C 478.828125 214.117188 484.023438 214.503906 489.230469 214.941406 C 489.371094 214.953125 489.511719 214.960938 489.636719 214.980469 Z M 467.339844 199.496094 C 467.210938 199.492188 467.085938 199.484375 466.941406 199.476562 C 461.875 199.457031 456.960938 199.796875 452.304688 200.753906 C 452.1875 200.773438 452.066406 200.808594 451.941406 200.839844 C 451.894531 200.726562 451.835938 200.605469 451.78125 200.480469 C 449.726562 195.894531 447.554688 191.359375 445.292969 186.851562 C 445.242188 186.734375 445.175781 186.609375 445.109375 186.492188 C 444.988281 186.523438 444.859375 186.546875 444.734375 186.582031 C 440.257812 188.417969 436.066406 190.960938 432.265625 194.351562 C 432.167969 194.4375 432.066406 194.527344 431.960938 194.625 C 431.894531 194.507812 431.832031 194.386719 431.757812 194.273438 C 429.382812 190.449219 426.859375 186.660156 424.179688 182.933594 C 426.871094 180.210938 429.933594 178.054688 433.453125 176.429688 C 434.972656 175.726562 436.585938 175.121094 438.289062 174.609375 C 440.625 178.414062 442.828125 182.261719 444.925781 186.140625 C 444.992188 186.257812 445.058594 186.375 445.109375 186.492188 C 445.234375 186.464844 445.359375 186.433594 445.496094 186.402344 C 450.347656 185.429688 455.507812 185.121094 460.832031 185.179688 C 460.980469 185.199219 461.128906 185.195312 461.261719 185.210938 C 461.3125 185.324219 461.367188 185.445312 461.417969 185.5625 C 463.386719 190.0625 465.3125 194.605469 467.195312 199.140625 C 467.242188 199.257812 467.289062 199.382812 467.339844 199.496094 Z M 461.261719 185.210938 C 461.402344 185.222656 461.550781 185.242188 461.6875 185.242188 C 467.179688 185.699219 472.777344 186.433594 478.410156 187.234375 C 478.558594 187.253906 478.703125 187.273438 478.847656 187.292969 C 478.8125 187.183594 478.773438 187.066406 478.734375 186.949219 C 477.050781 182.585938 475.320312 178.253906 473.480469 173.960938 C 472.300781 173.777344 471.191406 173.613281 470.175781 173.488281 C 464.640625 172.8125 459.609375 172.464844 455.027344 172.46875 C 457.152344 176.554688 459.171875 180.683594 461.101562 184.851562 C 461.15625 184.972656 461.210938 185.097656 461.261719 185.210938 Z M 473.285156 213.875 C 473.332031 213.988281 473.398438 214.105469 473.449219 214.21875 C 475.382812 218.746094 477.34375 223.261719 479.296875 227.78125 C 479.347656 227.902344 479.402344 228.023438 479.453125 228.140625 C 479.328125 228.132812 479.191406 228.140625 479.050781 228.136719 C 473.953125 228.472656 469.007812 229.128906 464.25 230.226562 C 464.128906 230.257812 464.007812 230.300781 463.886719 230.34375 C 463.9375 230.480469 463.980469 230.605469 464.023438 230.726562 C 465.738281 235.503906 467.402344 240.308594 468.96875 245.175781 C 468.996094 245.234375 469.019531 245.296875 469.035156 245.351562 C 463.789062 247.140625 459.023438 249.695312 455.042969 253.503906 C 453.839844 248.617188 452.523438 243.8125 451.128906 239.0625 C 451.097656 238.9375 451.046875 238.800781 451.015625 238.667969 C 451.109375 238.566406 451.203125 238.472656 451.296875 238.371094 C 454.996094 234.875 459.066406 232.226562 463.535156 230.46875 C 463.652344 230.429688 463.769531 230.386719 463.886719 230.34375 C 463.839844 230.230469 463.792969 230.101562 463.75 229.976562 C 461.96875 225.246094 460.132812 220.539062 458.265625 215.867188 C 458.222656 215.742188 458.152344 215.621094 458.109375 215.496094 C 458.21875 215.457031 458.339844 215.425781 458.460938 215.382812 C 463.074219 214.410156 467.910156 213.960938 472.882812 213.851562 C 473.023438 213.851562 473.164062 213.863281 473.285156 213.875 Z M 458.109375 215.496094 C 457.988281 215.527344 457.867188 215.570312 457.75 215.589844 C 453.460938 217.289062 449.539062 219.8125 445.992188 223.183594 C 445.898438 223.277344 445.816406 223.378906 445.71875 223.472656 C 445.765625 223.601562 445.820312 223.722656 445.871094 223.835938 C 447.636719 228.617188 449.316406 233.421875 450.882812 238.289062 C 450.925781 238.414062 450.976562 238.550781 451.015625 238.667969 C 450.925781 238.773438 450.832031 238.878906 450.746094 238.988281 C 447.957031 243.207031 445.554688 248.289062 443.574219 254.320312 C 442.171875 249.050781 440.535156 243.90625 438.644531 238.898438 C 440.523438 232.992188 442.8125 227.960938 445.457031 223.777344 C 445.542969 223.664062 445.628906 223.574219 445.71875 223.472656 C 445.675781 223.347656 445.632812 223.214844 445.578125 223.09375 C 443.695312 218.398438 441.726562 213.726562 439.632812 209.140625 C 439.582031 209.023438 439.527344 208.902344 439.457031 208.777344 C 439.363281 208.871094 439.28125 208.96875 439.195312 209.089844 C 436.507812 213.351562 434.164062 218.4375 432.203125 224.34375 C 429.757812 219.582031 427.042969 214.972656 424.023438 210.523438 C 426.230469 204.554688 428.789062 199.347656 431.6875 194.933594 C 431.769531 194.8125 431.863281 194.710938 431.960938 194.625 C 432.035156 194.738281 432.101562 194.855469 432.167969 194.976562 C 434.6875 199.398438 437.0625 203.875 439.285156 208.410156 C 439.351562 208.539062 439.394531 208.664062 439.457031 208.777344 C 439.554688 208.679688 439.644531 208.597656 439.738281 208.503906 C 443.320312 205.15625 447.304688 202.660156 451.585938 200.9375 C 451.707031 200.902344 451.820312 200.875 451.941406 200.839844 C 452 200.972656 452.054688 201.09375 452.109375 201.210938 C 454.113281 205.820312 456.042969 210.460938 457.957031 215.121094 C 458.011719 215.246094 458.054688 215.371094 458.109375 215.496094 Z M 496.050781 228.363281 C 495.910156 228.351562 495.769531 228.351562 495.628906 228.347656 C 490.371094 228.242188 485.097656 228.128906 479.863281 228.136719 C 479.730469 228.140625 479.585938 228.132812 479.453125 228.140625 C 479.507812 228.261719 479.558594 228.375 479.609375 228.488281 C 481.511719 232.945312 483.417969 237.421875 485.261719 241.90625 C 489.054688 241.425781 492.933594 241.070312 496.808594 240.71875 C 498.578125 240.558594 500.347656 240.394531 502.109375 240.21875 C 500.144531 236.378906 498.167969 232.542969 496.21875 228.683594 C 496.171875 228.578125 496.113281 228.472656 496.050781 228.363281 Z M 496.050781 228.363281 "/>
</g>
</svg>
