<?xml version="1.0" encoding="UTF-8"?>
<svg xmlns="http://www.w3.org/2000/svg" xmlns:xlink="http://www.w3.org/1999/xlink" width="1012.5pt" height="487.499991pt" viewBox="0 0 1012.5 487.499991" version="1.2">
<defs>
<clipPath id="clip1">
  <path d="M 92.933594 48.722656 L 268 48.722656 L 268 243.617188 L 92.933594 243.617188 Z M 92.933594 48.722656 "/>
</clipPath>
</defs>
<g id="surface1">
<g clip-path="url(#clip1)" clip-rule="nonzero">
<path style=" stroke:none;fill-rule:nonzero;fill:rgb(1.568604%,2.349854%,2.349854%);fill-opacity:1;" d="M 112.03125 177.796875 L 112.191406 177.964844 C 117.539062 183.667969 125.359375 188.347656 125.433594 188.394531 C 134.007812 193.726562 144.820312 196.542969 156.691406 196.542969 C 160.578125 196.542969 164.582031 196.238281 168.601562 195.632812 C 178.179688 194.191406 187.683594 191.421875 196.886719 188.730469 C 203.527344 186.792969 210.351562 184.804688 217.191406 183.300781 C 224.945312 181.601562 232.289062 180.734375 239.015625 180.734375 C 248.460938 180.734375 256.921875 182.4375 264.148438 185.792969 L 264.984375 186.183594 L 264.984375 87.1875 L 264.660156 87.027344 C 257.449219 83.273438 248.8125 81.367188 239.015625 81.367188 C 232.511719 81.367188 225.382812 82.210938 217.832031 83.871094 C 211.078125 85.351562 204.296875 87.332031 197.742188 89.242188 C 188.441406 91.960938 178.828125 94.761719 169.046875 96.234375 L 168.542969 96.308594 C 165.507812 96.746094 162.40625 96.96875 159.324219 96.96875 C 142.277344 96.96875 125.402344 90.058594 113.03125 77.996094 L 112.03125 77.023438 Z M 94.445312 243.617188 C 93.613281 243.617188 92.933594 242.9375 92.933594 242.101562 L 92.933594 58.296875 C 92.933594 53.019531 97.21875 48.722656 102.484375 48.722656 C 107.75 48.722656 112.03125 53.019531 112.03125 58.296875 L 112.03125 72.628906 L 113.503906 74.167969 C 125.503906 86.730469 142.199219 93.9375 159.320312 93.9375 C 162.253906 93.9375 165.210938 93.722656 168.113281 93.300781 L 168.601562 93.230469 C 178.171875 91.792969 187.675781 89.019531 196.878906 86.332031 C 203.488281 84.398438 210.3125 82.410156 217.191406 80.898438 C 224.945312 79.199219 232.289062 78.335938 239.015625 78.335938 C 249.84375 78.335938 259.335938 80.5625 267.238281 84.960938 C 267.710938 85.226562 268.015625 85.734375 268.015625 86.285156 L 268.015625 188.695312 C 268.015625 189.222656 267.726562 189.726562 267.269531 189.996094 C 267.03125 190.132812 266.769531 190.210938 266.496094 190.210938 C 266.234375 190.210938 265.984375 190.140625 265.761719 190.019531 C 258.320312 185.875 249.316406 183.777344 239.015625 183.777344 C 232.511719 183.777344 225.382812 184.613281 217.832031 186.273438 C 211.054688 187.757812 204.289062 189.734375 197.75 191.652344 C 188.449219 194.363281 178.835938 197.171875 169.046875 198.636719 C 164.890625 199.261719 160.730469 199.585938 156.691406 199.585938 C 144.257812 199.585938 132.902344 196.613281 123.859375 190.992188 C 123.492188 190.769531 114.988281 185.660156 109.394531 179.394531 C 109.140625 179.121094 109.003906 178.761719 109.003906 178.386719 L 109.003906 58.296875 C 109.003906 54.691406 106.078125 51.765625 102.484375 51.765625 C 98.886719 51.765625 95.96875 54.691406 95.96875 58.296875 L 95.96875 240.585938 L 109.003906 240.585938 L 109.003906 192.921875 C 109.003906 192.078125 109.683594 191.398438 110.515625 191.398438 C 111.359375 191.398438 112.03125 192.078125 112.03125 192.921875 L 112.03125 242.101562 C 112.03125 242.9375 111.359375 243.617188 110.515625 243.617188 L 94.445312 243.617188 "/>
</g>
<path style=" stroke:none;fill-rule:nonzero;fill:rgb(49.409485%,59.609985%,67.059326%);fill-opacity:1;" d="M 168.824219 146.667969 C 165.835938 147.121094 162.8125 147.410156 159.777344 147.535156 L 159.777344 173.636719 C 162.8125 173.515625 165.835938 173.222656 168.824219 172.777344 C 174.816406 171.875 180.699219 170.472656 186.554688 168.894531 L 186.554688 142.785156 C 180.699219 144.371094 174.816406 145.773438 168.824219 146.667969 "/>
<path style=" stroke:none;fill-rule:nonzero;fill:rgb(49.409485%,59.609985%,67.059326%);fill-opacity:1;" d="M 217.511719 134.320312 C 216.113281 134.628906 214.714844 134.957031 213.324219 135.300781 L 213.324219 161.40625 C 214.714844 161.066406 216.113281 160.730469 217.511719 160.425781 C 224.863281 158.816406 232.542969 157.804688 240.09375 157.90625 L 240.09375 131.800781 C 232.542969 131.703125 224.863281 132.714844 217.511719 134.320312 "/>
<path style=" stroke:none;fill-rule:nonzero;fill:rgb(49.409485%,59.609985%,67.059326%);fill-opacity:1;" d="M 217.511719 108.976562 C 224.863281 107.363281 232.542969 106.351562 240.09375 106.457031 L 240.09375 88.296875 C 239.734375 88.289062 239.382812 88.277344 239.023438 88.277344 C 233 88.277344 226.429688 89.058594 219.308594 90.621094 C 217.304688 91.054688 215.308594 91.546875 213.324219 92.058594 L 213.324219 109.957031 C 214.714844 109.613281 216.113281 109.285156 217.511719 108.976562 "/>
<path style=" stroke:none;fill-rule:nonzero;fill:rgb(49.409485%,59.609985%,67.059326%);fill-opacity:1;" d="M 168.824219 121.324219 C 174.816406 120.429688 180.699219 119.027344 186.554688 117.441406 L 186.554688 99.566406 C 181.167969 100.972656 175.679688 102.222656 170.070312 103.066406 L 169.535156 103.148438 C 166.28125 103.617188 163.023438 103.855469 159.777344 103.871094 L 159.777344 122.191406 C 162.8125 122.066406 165.835938 121.777344 168.824219 121.324219 "/>
<path style=" stroke:none;fill-rule:nonzero;fill:rgb(49.409485%,59.609985%,67.059326%);fill-opacity:1;" d="M 213.324219 135.300781 L 213.324219 109.957031 C 204.328125 112.171875 195.488281 115.019531 186.554688 117.441406 L 186.554688 142.785156 C 195.488281 140.363281 204.328125 137.515625 213.324219 135.300781 "/>
<path style=" stroke:none;fill-rule:nonzero;fill:rgb(49.409485%,59.609985%,67.059326%);fill-opacity:1;" d="M 159.777344 147.535156 L 159.777344 122.191406 C 150.597656 122.566406 141.398438 121.347656 133.007812 118.046875 L 133.007812 143.398438 C 141.398438 146.699219 150.597656 147.910156 159.777344 147.535156 "/>
<path style=" stroke:none;fill-rule:nonzero;fill:rgb(49.409485%,59.609985%,67.059326%);fill-opacity:1;" d="M 240.09375 173.859375 C 246.519531 173.941406 252.535156 174.722656 258.089844 176.253906 L 258.089844 160.683594 C 252.335938 158.816406 246.253906 157.988281 240.09375 157.90625 L 240.09375 173.859375 "/>
<path style=" stroke:none;fill-rule:nonzero;fill:rgb(49.409485%,59.609985%,67.059326%);fill-opacity:1;" d="M 186.554688 168.894531 L 186.554688 184.511719 C 189.328125 183.738281 192.125 182.925781 194.96875 182.097656 C 200.929688 180.359375 207.074219 178.585938 213.324219 177.121094 L 213.324219 161.40625 C 204.328125 163.617188 195.488281 166.476562 186.554688 168.894531 "/>
<path style=" stroke:none;fill-rule:nonzero;fill:rgb(49.409485%,59.609985%,67.059326%);fill-opacity:1;" d="M 240.09375 106.457031 L 240.09375 131.800781 C 246.253906 131.886719 252.335938 132.714844 258.089844 134.582031 L 258.089844 109.238281 C 252.335938 107.371094 246.253906 106.542969 240.09375 106.457031 "/>
<path style=" stroke:none;fill-rule:nonzero;fill:rgb(49.409485%,59.609985%,67.059326%);fill-opacity:1;" d="M 133.007812 169.5 L 133.007812 184.648438 C 139.816406 187.929688 147.894531 189.636719 156.652344 189.636719 C 157.683594 189.636719 158.730469 189.605469 159.777344 189.558594 L 159.777344 173.636719 C 150.597656 174.011719 141.398438 172.800781 133.007812 169.5 "/>
<path style=" stroke:none;fill-rule:nonzero;fill:rgb(49.409485%,59.609985%,67.059326%);fill-opacity:1;" d="M 133.007812 118.046875 L 133.007812 98.90625 C 128.09375 96.992188 123.363281 94.546875 118.929688 91.601562 L 118.929688 110.003906 C 122.125 112.371094 124.664062 113.886719 124.664062 113.886719 C 127.320312 115.542969 130.117188 116.914062 133.007812 118.046875 "/>
<path style=" stroke:none;fill-rule:nonzero;fill:rgb(49.409485%,59.609985%,67.059326%);fill-opacity:1;" d="M 133.007812 169.5 L 133.007812 143.398438 C 130.117188 142.257812 127.320312 140.886719 124.664062 139.230469 C 124.664062 139.230469 122.125 137.714844 118.929688 135.347656 L 118.929688 161.457031 C 122.125 163.816406 124.664062 165.339844 124.664062 165.339844 C 127.320312 166.996094 130.117188 168.359375 133.007812 169.5 "/>
</g>
</svg>
